Coordinates
version=1
nRows=22
nColumns=24
inDegrees=yes

Units are S.I. units (second, meters, Newtons, ...)
Angles are in degrees.

endheader
time	pelvis_tilt	pelvis_list	pelvis_rotation	pelvis_tx	pelvis_ty	pelvis_tz	hip_flexion_r	hip_adduction_r	hip_rotation_r	knee_angle_r	ankle_angle_r	subtalar_angle_r	mtp_angle_r	hip_flexion_l	hip_adduction_l	hip_rotation_l	knee_angle_l	ankle_angle_l	subtalar_angle_l	mtp_angle_l	lumbar_extension	lumbar_bending	lumbar_rotation
      4.84500000	    -14.85786803	      6.08547128	     -3.60649173	     -0.87973959	     -0.01130268	     -0.35322787	     33.51839591	     -5.78230244	     -1.40219672	    -60.10069333	     -1.45509706	    -11.06516454	     18.31329214	     21.83282778	      7.29951006	     -5.24296125	    -18.02951906	      4.87542088	     -3.43884141	      1.96600261	     21.71025199	     -6.69663243	    -11.22967405
      4.85000000	    -14.85128872	      5.74081010	     -3.29896377	     -0.87409507	     -0.01047228	     -0.35379341	     34.02122714	     -5.58863421	     -2.02410976	    -59.26394421	     -0.95543336	    -11.16305535	     17.81502039	     21.06063303	      7.14936787	     -4.79280156	    -17.43219896	      4.97312286	     -3.33522886	      1.85624344	     21.58846098	     -6.47816678	    -11.67605761
      4.85500000	    -14.84471940	      5.41592058	     -2.99954148	     -0.86846462	     -0.00972957	     -0.35432963	     34.51413305	     -5.42319679	     -2.64237533	    -58.37688894	     -0.49454756	    -11.23400357	     17.28805571	     20.28830682	      7.00243288	     -4.37027585	    -16.82335581	      5.07320444	     -3.22214486	      1.75564342	     21.47138976	     -6.27788514	    -12.09777949
      4.86000000	    -14.83112039	      5.11356992	     -2.70272210	     -0.86284309	     -0.00906306	     -0.35485773	     34.98770261	     -5.29125820	     -3.26103020	    -57.44143095	     -0.07830491	    -11.29732968	     16.70900728	     19.50576768	      6.86736412	     -3.96293842	    -16.19964015	      5.16592159	     -3.10479981	      1.65947332	     21.34831184	     -6.09490411	    -12.51003087
      4.86500000	    -14.82569879	      4.82975218	     -2.42159745	     -0.85722439	     -0.00849074	     -0.35533019	     35.45896144	     -5.17456970	     -3.86344226	    -56.45749284	      0.30592368	    -11.33335004	     16.13941087	     18.72948334	      6.73107111	     -3.58887289	    -15.56353620	      5.25913527	     -2.98399250	      1.57850908	     21.23953046	     -5.92873488	    -12.89067277
      4.87000000	    -14.76634472	      4.60217609	     -2.13774248	     -0.85162178	     -0.00796121	     -0.35576480	     35.87348512	     -5.12773866	     -4.46198551	    -55.45782171	      0.64314059	    -11.35936534	     15.37212276	     17.87776447	      6.64590101	     -3.18871576	    -14.88376650	      5.33042411	     -2.85358561	      1.49730452	     21.07276651	     -5.82752498	    -13.27233889
      4.87500000	    -14.80966762	      4.33614728	     -1.90148665	     -0.84599882	     -0.00760903	     -0.35617806	     36.36537225	     -5.01158191	     -5.01829283	    -54.36600296	      1.00099483	    -11.32073897	     14.90946721	     17.16148454	      6.48835936	     -2.92778284	    -14.24763038	      5.42466243	     -2.73473892	      1.45691428	     21.02373283	     -5.64919368	    -13.57752218
      4.88000000	    -14.79776654	      4.09907070	     -1.65019203	     -0.84037105	     -0.00727264	     -0.35655345	     36.78036720	     -4.94408898	     -5.59593285	    -53.23254065	      1.30102218	    -11.29209234	     14.43558350	     16.36888691	      6.35732498	     -2.60970123	    -13.57653761	      5.51137598	     -2.59824911	      1.43403083	     20.91845542	     -5.51851894	    -13.90717063
      4.88500000	    -14.71925610	      3.91447406	     -1.40730648	     -0.83476765	     -0.00697453	     -0.35689006	     37.12489410	     -4.93242882	     -6.15889428	    -52.08961682	      1.58381964	    -11.24159366	     13.78961384	     15.49079987	      6.27076645	     -2.28081723	    -12.86897702	      5.57414454	     -2.46306904	      1.44346602	     20.73681865	     -5.44250686	    -14.20008231
      4.89000000	    -14.76319118	      3.70455334	     -1.21002616	     -0.82913235	     -0.00686296	     -0.35718277	     37.56847964	     -4.85597135	     -6.66215881	    -50.85933799	      1.87885677	    -11.11947050	     13.43555140	     14.77566475	      6.13093981	     -2.11571686	    -12.21644651	      5.65345339	     -2.33202069	      1.45783165	     20.69998398	     -5.30899436	    -14.46754443
      4.89500000	    -14.70815846	      3.51985233	     -0.99178966	     -0.82351964	     -0.00673648	     -0.35745760	     37.89564455	     -4.83334080	     -7.21067192	    -49.61250971	      2.11093637	    -11.00841938	     13.00301570	     13.93349738	      6.01516909	     -1.85943357	    -11.52120258	      5.72887586	     -2.16123072	      1.52174006	     20.54752401	     -5.22198439	    -14.73421811
      4.90000000	    -14.68529615	      3.34196435	     -0.80856059	     -0.81788541	     -0.00672773	     -0.35768821	     38.23515988	     -4.78847744	     -7.70982314	    -48.31359973	      2.35803210	    -10.84214173	     12.62406141	     13.14164115	      5.88982858	     -1.68804314	    -10.85190155	      5.80952611	     -2.00522849	      1.61166386	     20.43692738	     -5.12228447	    -14.96549355
      4.90500000	    -14.69406971	      3.16990283	     -0.63748905	     -0.81225208	     -0.00682163	     -0.35787742	     38.58461877	     -4.73096230	     -8.17209363	    -46.96096174	      2.59568807	    -10.64774250	     12.35018255	     12.40793572	      5.75946980	     -1.58130525	    -10.22313913	      5.89097591	     -1.84462170	      1.70173247	     20.36130079	     -5.02576636	    -15.19403425
      4.91000000	    -14.69049489	      3.00715951	     -0.48917837	     -0.80660763	     -0.00700362	     -0.35806286	     38.90820235	     -4.67671394	     -8.63097198	    -45.58101371	      2.80505006	    -10.42937928	     12.11536835	     11.66760358	      5.63070407	     -1.48115320	     -9.60740246	      6.00363939	     -1.67080337	      1.81680112	     20.27801312	     -4.92160251	    -15.40597923
      4.91500000	    -14.80365761	      2.90535248	     -0.41184747	     -0.80100056	     -0.00741954	     -0.35812001	     39.38256673	     -4.62227762	     -8.97852071	    -44.20525609	      2.94905020	    -10.16518183	     12.01304068	     11.06633160	      5.54342316	     -1.42325455	     -9.01308734	      6.12750135	     -1.51714089	      1.86153306	     20.32010786	     -4.85257338	    -15.43981546
      4.92000000	    -14.65458723	      2.67252095	     -0.17482881	     -0.79537018	     -0.00752525	     -0.35834174	     39.44983707	     -4.55624829	     -9.55541315	    -42.69479162	      3.10636429	     -9.91116060	     11.73864312	     10.22157263	      5.34350888	     -1.30044602	     -8.48032956	      6.26090600	     -1.25604340	      2.11545362	     20.05733625	     -4.72572049	    -15.77717373
      4.92500000	    -14.65393732	      2.49991287	     -0.05196215	     -0.78971988	     -0.00793780	     -0.35843076	     39.70485550	     -4.45670764	     -9.96802007	    -41.19722197	      3.25615497	     -9.59353906	     11.53321146	      9.55633925	      5.18368932	     -1.27038952	     -7.98678103	      6.42680729	     -1.09128408	      2.33833533	     19.97316661	     -4.60671315	    -15.96149310
      4.93000000	    -14.67224320	      2.32984101	      0.07162433	     -0.78409180	     -0.00843347	     -0.35849121	     39.96086104	     -4.35528376	    -10.37775962	    -39.66826535	      3.35796750	     -9.25576331	     11.36193610	      8.94861968	      5.02162893	     -1.23493712	     -7.55928853	      6.60995310	     -0.92270918	      2.55418755	     19.90487782	     -4.49311755	    -16.13356973
      4.93500000	    -14.70281598	      2.15493948	      0.19162918	     -0.77845960	     -0.00901306	     -0.35854588	     40.20710565	     -4.24110236	    -10.77163374	    -38.10894451	      3.42834954	     -8.89391918	     11.21653363	      8.38777012	      4.85305119	     -1.19971056	     -7.19416138	      6.82371762	     -0.77025611	      2.75761348	     19.84835574	     -4.36781636	    -16.29469098
      4.94000000	    -14.74771819	      1.97727057	      0.30349088	     -0.77282651	     -0.00967651	     -0.35856304	     40.44754382	     -4.11090263	    -11.14625990	    -36.52257971	      3.46815245	     -8.50992147	     11.09229609	      7.87761476	      4.67715354	     -1.15753915	     -6.89600417	      7.06645454	     -0.63935787	      2.93929407	     19.80584217	     -4.24095280	    -16.45194847
      4.94500000	    -14.80558702	      1.79820433	      0.41161703	     -0.76719872	     -0.01042125	     -0.35854708	     40.68128215	     -3.96756683	    -11.49434359	    -34.91242000	      3.47782585	     -8.10289531	     10.98706760	      7.41895565	      4.49657072	     -1.10149846	     -6.66871247	      7.34264823	     -0.53472244	      3.09141348	     19.77646203	     -4.11076849	    -16.61079291
      4.95000000	    -14.86786279	      1.61243351	      0.52183201	     -0.76157115	     -0.01122870	     -0.35849093	     40.89783582	     -3.81193949	    -11.83615225	    -33.28310655	      3.45913937	     -7.67865892	     10.89722452	      7.00116608	      4.30466422	     -1.02267210	     -6.51039943	      7.64704756	     -0.44646460	      3.21246823	     19.74945674	     -3.98356359	    -16.78451396
